<?xml version="1.0" encoding="UTF-8"?><svg id="Layer_1" xmlns="http://www.w3.org/2000/svg" viewBox="0 0 180 180"><defs><style>.cls-1{fill:#447099;stroke-width:0px;}</style></defs><path class="cls-1" d="m117.23,42.74v-.26c-.02-7.97-5.77-14.76-13.61-16.09v-2.96c-.02-6.47-4.55-12.04-10.89-13.33V1.65c0-1.5-1.22-2.72-2.72-2.72s-2.72,1.22-2.72,2.72v8.45c-6.34,1.28-10.89,6.86-10.89,13.33v2.96c-7.84,1.33-13.59,8.12-13.61,16.09v.26c-34.43,15.02-50.17,55.11-35.14,89.56,15.05,34.43,55.13,50.17,89.58,35.14,24.78-10.82,40.83-35.32,40.81-62.38-.02-27.02-16.05-51.5-40.81-62.32Zm20.16,21.51c4.22,4.88,7.66,10.39,10.21,16.33h-14.44c-1.44-5.66-3.48-11.13-6.12-16.33h10.34Zm-22.91,38.08c-.09-5.53-.39-11.02-.91-16.33h15.31c1.11,5.38,1.76,10.84,1.89,16.33h-16.29Zm16.27,5.44c-.15,5.49-.78,10.95-1.92,16.33h-15.29c.54-5.31.83-10.78.91-16.33h16.29Zm-13.33-48.97h-9.19c-1.44-4.75-3.48-9.28-6.12-13.46,6.14,3.14,11.41,7.75,15.31,13.46Zm-13.24,5.44c1.44,5.36,2.55,10.82,3.27,16.33h-14.72v-16.33h11.45Zm-11.45-5.44v-15.53c3.44,1.98,6.95,7.51,9.76,15.53h-9.76Zm-14.83-13.46c-2.63,4.2-4.68,8.71-6.12,13.46h-9.17c3.9-5.68,9.15-10.32,15.29-13.46Zm-7.71,18.9c-1.37,5.36-2.42,10.82-3.14,16.33h-14.61c1.57-5.7,3.79-11.19,6.66-16.33h11.08Zm-4.64,38.08h-16.29c.15-5.49.78-10.95,1.89-16.33h15.31c-.54,5.31-.85,10.78-.91,16.33Zm.87,21.77h-15.29c-1.13-5.38-1.76-10.84-1.92-16.33h16.29c.09,5.55.39,11.02.91,16.33Zm-23.8-59.86h10.36c-2.61,5.2-4.66,10.67-6.12,16.33h-14.46c2.55-5.94,5.99-11.45,10.21-16.33Zm-15.13,43.53h16.31c.15,5.49.76,10.95,1.81,16.33h-15.24c-1.68-5.29-2.66-10.78-2.87-16.33Zm4.92,21.77h14.41c1.46,5.64,3.51,11.13,6.14,16.33h-10.34c-4.22-4.88-7.66-10.39-10.21-16.33Zm15.48,21.77h8.17c2.55,4.12,5.62,7.86,9.15,11.19-6.36-2.77-12.19-6.53-17.31-11.19Zm14.7,0h9.19c1.42,4.73,3.48,9.25,6.1,13.46-6.14-3.14-11.39-7.77-15.29-13.46Zm24.69,15.53c-3.46-1.96-6.95-7.49-9.75-15.53h9.75v15.53Zm0-20.97h-11.45c-1.44-5.36-2.55-10.82-3.27-16.33h14.72v16.33Zm0-21.77h-15.31c-.54-5.31-.87-10.76-.94-16.33h16.24v16.33Zm0-21.77h-16.31c.09-5.55.39-11.02.94-16.33h15.37v16.33Zm0-43.53h-9.78c2.81-8.03,6.31-13.59,9.78-15.55v15.55Zm-18.86-18.25c.91-5.18,5.42-8.95,10.69-8.97h21.77c5.27.02,9.76,3.79,10.69,8.97-14-4.7-29.16-4.7-43.16,0Zm24.3,126.29v-15.53h9.76c-2.81,8.03-6.29,13.57-9.76,15.53Zm11.43-20.97h-11.43v-16.33h14.7c-.74,5.51-1.83,10.97-3.27,16.33Zm-11.43-43.55v-16.33h15.31c.54,5.31.87,10.78.94,16.33h-16.24Zm28.11-38.08c2.87,5.14,5.1,10.63,6.66,16.33h-14.59c-.72-5.51-1.76-10.97-3.14-16.33h11.06Zm-7.9,65.3h14.63c-1.57,5.68-3.81,11.17-6.68,16.33h-11.08c1.39-5.38,2.42-10.82,3.14-16.33Zm1.89,32.94c3.53-3.31,6.6-7.08,9.15-11.17h8.14c-5.12,4.64-10.95,8.43-17.29,11.17Zm22.56-16.61h-10.36c2.61-5.2,4.66-10.69,6.12-16.33h14.46c-2.55,5.94-5.99,11.45-10.21,16.33Zm12.24-21.77h-15.2c1.07-5.38,1.65-10.84,1.81-16.33h16.29c-.24,5.55-1.22,11.04-2.9,16.33Z"/></svg>