<?xml version="1.0" encoding="UTF-8"?><svg id="Layer_1" xmlns="http://www.w3.org/2000/svg" viewBox="0 0 180 180"><defs><style>.cls-1{fill:#a67380;stroke-width:0px;}</style></defs><path class="cls-1" d="m173.93,28.14c-2.62-6.37-9.75-12.19-38.99,8.81-29.24,21-41.62,56.61-41.62,56.61v.05c-.26-.64-.55-1.24-.87-1.83,1.19-.71,2.48-2.1,3.04-4.85,1.14-5.58-2.67-8.09-5.31-6.62,5.52-18.28,9.08-23.07,9.48-22.57.42.53,1.67-.05,1.07-1s-1.79,0-1.79,0c-3.73,2.63-7.48,17.2-8.94,23.47-1.46-6.27-5.21-20.83-8.94-23.47,0,0-1.2-.95-1.79,0s.65,1.53,1.07,1c.4-.5,3.96,4.29,9.48,22.57-2.64-1.47-6.44,1.05-5.31,6.62.56,2.74,1.85,4.13,3.04,4.85-.32.58-.61,1.18-.86,1.82v-.04s-12.37-35.62-41.62-56.61C15.82,15.95,8.7,21.77,6.07,28.14c-2.62,6.37,9.19,39.93,8.62,45.37-.56,5.44-1.69,22.12,11.25,22.68,12.94.56,20.24,1.59,20.24,1.59,0,0-10.33-.98-16.24,3.44s-8.72,9-6.82,12.16.14,7.31,1.48,9c1.34,1.69,2.95,3.51,3.02,9.49.07,5.98,7.38,4.43,7.59,8.3s-5.91,4.85-5.69,7.59,3.44,2.18,5.13,0,8.65-.56,12.86,6.19,9.44,3.16,10.38-.49,8.62.37,13.31-6.28c4.1-5.82,11.7-12.71,15.49-21.99.49,2.4,1,4.58,1.48,6.45.43,3.93,1.08,6.44,1.81,6.44s1.38-2.51,1.81-6.44c.47-1.87.99-4.06,1.48-6.46,3.79,9.28,11.4,16.18,15.5,22,4.69,6.65,12.37,2.62,13.31,6.28.94,3.66,6.16,7.24,10.38.49,4.22-6.75,11.18-8.37,12.86-6.19s4.92,2.74,5.13,0-5.91-3.73-5.69-7.59,7.52-2.32,7.59-8.3c.07-5.98,1.69-7.8,3.02-9.49,1.34-1.69-.42-5.83,1.48-9s-.91-7.73-6.82-12.16-16.24-3.44-16.24-3.44c0,0,7.31-1.03,20.24-1.59,12.94-.56,11.81-17.25,11.25-22.68-.56-5.44,11.25-38.99,8.62-45.37Z"/></svg>