<?xml version="1.0" encoding="UTF-8"?><svg id="Layer_1" xmlns="http://www.w3.org/2000/svg" viewBox="0 0 75.56 75.27"><defs><style>.cls-1{fill:#8aa67a;stroke-width:0px;}</style></defs><path class="cls-1" d="m13.64,16.62s1.09-12.44,13.16-12.44,15.85,12.35,15.85,12.35c0,0-5.58,30.04-2.5,33.03,3.09,2.98,9.05,7.96,15.02,8.36,5.97.39,14.34-.99,13.15,3.38-1.2,4.38-12.94,9.15-20.1,9.75-7.17.59-15.05-5.98-17.18-6.77l-1.18,1.8s-.86.4-1.19,2.59c0,0-9.31.2-10.9-1.6-1.59-1.79-4.47-6.96-4.12-8.95.35-1.99,2.33-14.11,2.24-18.2-.1-4.1-2.24-23.3-2.24-23.3Z"/></svg>