<?xml version="1.0" encoding="UTF-8"?><svg id="Layer_1" xmlns="http://www.w3.org/2000/svg" viewBox="0 0 78.85 68.91"><defs><style>.cls-1{fill:#c2c2c4;stroke-width:0px;}</style></defs><path class="cls-1" d="m29.89,4.06l-9.43,2.34s-.02,0-.03,0c-3.14.84-5.64,3.81-6.22,7.99l-7.52,40.74c-.07.53.12,1.06.5,1.43h9.46c.64-.12,1.16-.6,1.31-1.24l1.23-5.1v8.03c0,.92.75,1.67,1.67,1.67h36.74c.92,0,1.67-.75,1.67-1.67v-8.03l1.23,5.1c.16.65.69,1.14,1.34,1.25h9.44c.4-.39.59-.95.49-1.49l-7.51-40.68c-.58-4.18-3.08-7.15-6.22-7.99-.01,0-.02,0-.03,0l-9.43-2.34-8.6,17.2c-.31.62-1.19.62-1.49,0L29.89,4.06Zm1.9.07l7.44,14.89,7.44-14.88c-.1.06-.19.13-.27.22-1.87,1.89-4.49,2.85-7.15,2.84-2.66,0-5.3-.98-7.19-2.86-.08-.08-.17-.15-.27-.22Zm7.44,23.44c.46,0,.83.37.83.83s-.37.83-.83.83-.83-.37-.83-.83.37-.83.83-.83Zm0,12.52c.46,0,.83.37.83.83s-.37.83-.83.83-.83-.37-.83-.83.37-.83.83-.83Zm0,12.52c.46,0,.83.37.83.83s-.37.83-.83.83-.83-.37-.83-.83.37-.83.83-.83Zm-32.35,5.61l-.26,1.38c-.19,1.03.6,1.97,1.64,1.97h5.92c.79,0,1.47-.55,1.63-1.32l.45-2.03H6.89Zm55.32,0l.45,2.02c.16.77.84,1.32,1.63,1.32h5.92c1.04,0,1.83-.94,1.64-1.97l-.26-1.37h-9.38Zm-41.34,3.34v1.67c0,.92.75,1.67,1.67,1.67h33.4c.92,0,1.67-.75,1.67-1.67v-1.67H20.87Z"/></svg>