<?xml version="1.0" encoding="UTF-8"?><svg id="Layer_1" xmlns="http://www.w3.org/2000/svg" viewBox="0 0 83.56 70.83"><defs><style>.cls-1{fill:#d9c4cc;stroke-width:0px;}</style></defs><path class="cls-1" d="m79.69,8.93c-1.17-2.83-4.33-5.42-17.33,3.92-13,9.33-18.5,25.17-18.5,25.17v.02c-.12-.28-.25-.55-.39-.81.53-.32,1.1-.94,1.35-2.15.5-2.48-1.19-3.6-2.36-2.94,2.45-8.13,4.04-10.25,4.21-10.03.19.23.74-.02.48-.44s-.8,0-.8,0c-1.66,1.17-3.32,7.65-3.97,10.43-.65-2.79-2.32-9.26-3.97-10.43,0,0-.53-.42-.8,0s.29.68.48.44c.18-.22,1.76,1.9,4.21,10.03-1.17-.65-2.86.46-2.36,2.94.25,1.22.82,1.84,1.35,2.15-.14.26-.27.53-.38.81v-.02s-5.5-15.83-18.5-25.17C9.4,3.51,6.24,6.1,5.07,8.93c-1.17,2.83,4.08,17.75,3.83,20.17-.25,2.42-.75,9.83,5,10.08,5.75.25,9,.71,9,.71,0,0-4.59-.44-7.22,1.53s-3.88,4-3.03,5.41.06,3.25.66,4c.59.75,1.31,1.56,1.34,4.22s3.28,1.97,3.38,3.69-2.62,2.16-2.53,3.38,1.53.97,2.28,0,3.84-.25,5.72,2.75,4.2,1.41,4.61-.22,3.83.17,5.92-2.79c1.82-2.59,5.2-5.65,6.89-9.77.22,1.06.45,2.04.66,2.87.19,1.75.48,2.86.8,2.86s.61-1.12.8-2.86c.21-.83.44-1.8.66-2.87,1.68,4.13,5.07,7.19,6.89,9.78,2.08,2.96,5.5,1.17,5.92,2.79.42,1.62,2.74,3.22,4.61.22s4.97-3.72,5.72-2.75,2.19,1.22,2.28,0-2.62-1.66-2.53-3.38,3.34-1.03,3.38-3.69.75-3.47,1.34-4.22c.59-.75-.19-2.59.66-4s-.41-3.44-3.03-5.41-7.22-1.53-7.22-1.53c0,0,3.25-.46,9-.71s5.25-7.67,5-10.08c-.25-2.42,5-17.33,3.83-20.17Z"/></svg>