<?xml version="1.0" encoding="UTF-8"?><svg id="Layer_1" xmlns="http://www.w3.org/2000/svg" viewBox="0 0 85.1 81.89"><defs><style>.cls-1{fill:#9a4665;fill-rule:evenodd;stroke-width:0px;}</style></defs><path class="cls-1" d="m79.53,8.74c-.55,1.11-2.32,2.76-2.32,2.76l.66.55-1.11.99-.33-.33-1.11,1.11.55.66-.99.88-.55-.55-1.11,1.11.77.77-.88.77-.66-.66s-1.11.88-1.66.88c-.55.11-1.22,0-1.22,0l-22.55,23.21c11.72,11.94-4.42,15.25-6.96,19.57-1.11,1.88-1.33,9.4-3.98,13.04-13.6,18.9-44.66-12.16-25.65-25.76,3.65-2.65,11.16-2.87,13.04-3.98,4.2-2.54,7.52-18.68,19.46-6.96l23.32-22.55s-.11-.55-.11-1.22c.11-.55.88-1.66.88-1.66l-.66-.66.77-.77.77.77,1.22-1.11-.66-.66.99-.88.55.55,1.11-1.11-.33-.44.99-.99.66.55s1.55-1.66,2.65-2.32c.99-.44,2.76.33,3.43,1.11.66.55,1.55,2.32.99,3.32Zm-39.13,34.82c-2.32-2.32-6.08-2.32-8.4,0s-2.32,6.08,0,8.4c2.32,2.21,6.08,2.21,8.4,0,2.32-2.32,2.32-6.08,0-8.4Zm31.95-29.07l-1.11-1.11-1.11,1.11,1.11,1.11,1.11-1.11Zm-1.88-1.77l-1.11-1.11-.99,1.11.99.99,1.11-.99Zm3.87-.33l-.99-.99-1.11.99,1.11,1.11.99-1.11Zm-1.77-1.77l-1.11-1.11-1.11,1.11,1.11.99,1.11-.99Zm3.76-.22l-.99-.99-1.11.99,1.11,1.11.99-1.11Zm-1.77-1.77l-1.11-1.11-.99,1.11.99.99,1.11-.99Z"/></svg>