<?xml version="1.0" encoding="UTF-8"?><svg id="Layer_1" xmlns="http://www.w3.org/2000/svg" viewBox="0 0 72 70.76"><defs><style>.cls-1{fill:#333;stroke-width:0px;}</style></defs><path class="cls-1" d="m64.36,18.53c-.29-.69-.74-1.31-1.32-1.79-1.01-1.09-1.18-2.68-2.2-3.77-.77-.82-1.7-1.47-2.73-1.92-1.39-.67-2.75-1.38-4.11-2.09-2.24-1.26-4.57-2.36-6.96-3.29-5.51-1.53-11.42-.17-15.71,3.61-3.69,3.05-5.81,7.61-5.76,12.4.13,3.03,1.13,5.95,2.88,8.42,1.1,1.63,2.42,3.09,3.91,4.36,2.06,1.67,4.34,3.06,6.77,4.12,2.14.98,4.32,1.88,6.46,2.86,1.08.49,2.04,1.2,2.84,2.07.92,1.01,1.45,2.31,1.47,3.68.02,1.62-.67,3.17-1.9,4.24-1.41,1.17-3.21,1.76-5.04,1.64-1.97-.15-3.9-.72-5.63-1.67-2.16-1.16-4.41-2.16-6.73-2.98-2.88-.97-5.9-1.41-8.94-1.31-2.93.07-5.8.86-8.35,2.3-3.44,1.97-5.96,5.2-7.03,9.02-.66,2.61-.52,5.36.42,7.88,1.27-3.94,3.91-7.29,7.44-9.45,2.47-1.48,5.37-2.09,8.23-1.73,2.08.23,4.09.82,5.96,1.76,2.41,1.15,4.64,2.66,7.12,3.66,4.38,1.95,9.27,2.45,13.96,1.41,2.56-.61,4.93-1.87,6.88-3.64,3.52-3.2,5.45-7.8,5.27-12.56-.23-4.97-2.88-9.52-7.09-12.18-2.12-1.25-4.34-2.32-6.63-3.19-2.36-.83-4.66-1.83-6.88-2.98-1.47-.82-2.67-2.04-3.46-3.53-.64-1.25-.62-2.73.05-3.97.58-1.01,1.64-1.66,2.81-1.72.88.01,1.72.37,2.34,1,.99,1.04,2.14,1.91,3.4,2.6,1.4.52,2.88.76,4.37.7,3.45.16,6.9.33,10.36.51.81.05,1.62-.15,2.31-.58,1.15-.94,1.63-2.47,1.22-3.9Zm-9.37-1.49c-.83.1-1.66-.18-2.27-.75-.98-.8-1.89-1.68-2.72-2.63,2.17.34,4.3.85,6.38,1.53-.06.83-.6,1.56-1.39,1.85Z"/></svg>