<?xml version="1.0" encoding="UTF-8"?><svg id="Layer_1" xmlns="http://www.w3.org/2000/svg" viewBox="0 0 61.99 92.13"><defs><style>.cls-1{fill:#e57367;stroke-width:0px;}</style></defs><path class="cls-1" d="m35.52,88.48c.24.13.54.05.68-.19.13-.24.05-.55-.19-.69-.31-.17-.6-.37-.88-.59-1.26-.95-2.12-2.34-2.41-3.89,0-.17-.02-.32-.06-.45h-1c.23,2.46,1.68,4.64,3.86,5.81Z"/><path class="cls-1" d="m39.44,88.48c.24.13.54.05.68-.19.13-.24.05-.55-.19-.69-.31-.17-.61-.37-.88-.59-1.26-.95-2.12-2.34-2.41-3.89,0-.17-.02-.32-.06-.45h-1c.23,2.46,1.68,4.64,3.86,5.81Z"/><path class="cls-1" d="m43.37,88.48c.08.04.16.06.25.06.18,0,.35-.1.44-.25.13-.24.05-.55-.19-.69-.32-.16-.62-.35-.9-.56-1.26-.95-2.12-2.34-2.41-3.89,0-.17,0-.32-.07-.45h-1c.24,2.45,1.7,4.62,3.88,5.78Z"/><path class="cls-1" d="m47.27,88.48c.08.04.16.06.25.06.18,0,.34-.1.43-.25.14-.24.06-.55-.18-.69-.31-.17-.61-.37-.89-.59-1.26-.95-2.11-2.34-2.4-3.89,0-.17,0-.32-.07-.45h-1.04c.24,2.47,1.7,4.65,3.9,5.81Z"/><path class="cls-1" d="m36.15,56.35l-.89-.18-.51-.13c-6,17.39-3.65,24.32-3.07,25.64h12.79c-1.49-2.06-3.88-8.16.24-24.38-.48.06-.96.09-1.44.09-2.4-.12-4.79-.46-7.12-1.04Z"/><path class="cls-1" d="m50.42,41.71c-1.78.91-5.46,1.56-9.29,1.6h-1.98c-.07-.01-.14-.03-.21-.05-5.73-.28-15.42-2.07-18.57-10.69-1.12-3.44-.49-7.2,1.7-10.08,2.53-3.35,6.72-5,11.8-4.63,5.31.39,8.8,2.2,10.37,5.38,3.51,7.1-3.81,18.36-4.12,18.84l-.12.21c1.72-.06,3.55-.21,5.19-.43l5-1.15.1-.05c.13-.07.24-.18.33-.3,0-.03,0-.06,0-.09,5.12-10.21,6-18.17,2.51-23.64-5.19-8.22-18.47-8-18.62-8s-.58-.05-1.47-.05c-3.44,0-12.12.57-17.89,5.9-3.78,3.43-5.64,8.34-5.64,14.56,0,13.28,8.25,21.59,26,26.17l.86.18c3.13.65,6.08,1.26,8.35.92,2-.3,4.09-3,5-4.48,1.69-2.7,1.31-7.75,1-10.26-.1.05-.2.1-.3.14Z"/><path class="cls-1" d="m27.32,67.49h-1c-.04.13-.06.28-.06.45-.29,1.55-1.15,2.94-2.41,3.89-.28.22-.57.42-.88.59-.24.14-.32.45-.19.69.14.24.44.32.68.19,2.18-1.17,3.63-3.35,3.86-5.81Z"/><path class="cls-1" d="m23.4,67.49h-1c-.04.13-.06.28-.06.45-.29,1.55-1.15,2.94-2.41,3.89-.27.22-.57.42-.88.59-.24.14-.32.45-.19.69.14.24.44.32.68.19,2.18-1.17,3.63-3.35,3.86-5.81Z"/><path class="cls-1" d="m19.49,67.52h-1c-.07.13-.07.28-.07.45-.29,1.55-1.15,2.94-2.41,3.89-.28.21-.58.4-.9.56-.24.14-.32.45-.19.69.09.15.26.25.44.25.09,0,.17-.02.25-.06,2.18-1.16,3.64-3.33,3.88-5.78Z"/><path class="cls-1" d="m15.61,67.49h-1.04c-.07.13-.07.28-.07.45-.29,1.55-1.14,2.94-2.4,3.89-.28.22-.58.42-.89.59-.24.14-.32.45-.18.69.09.15.25.25.43.25.09,0,.17-.02.25-.06,2.2-1.16,3.66-3.34,3.9-5.81Z"/><path class="cls-1" d="m15.71,42.21c-.48,0-.96-.03-1.44-.09,4.12,16.22,1.73,22.32.24,24.38h12.79c.58-1.32,2.93-8.25-3.07-25.64l-.51.13-.89.18c-2.33.58-4.72.92-7.12,1.04Z"/></svg>