<?xml version="1.0" encoding="UTF-8"?><svg id="Layer_1" xmlns="http://www.w3.org/2000/svg" viewBox="0 0 88.88 56.85"><defs><style>.cls-1{fill:#f4d487;stroke-width:0px;}</style></defs><path class="cls-1" d="m24.09,41.26c1.37.13,2.96.17,4.8.07h.1c.1,0,6.88.5,13.37,1.7.3,0,1.9,0,2.29-1.99,0-.2.2-1.7-2.19-2.49-2.09-.7-9.18-3.19-11.97-6.28-3.99-4.39-5.49-8.88-4.29-13.37,1.3-4.99,5.88-6.28,8.18-6.38.2,0,.4.1.5.2.1.1,2.99,1.99,5.29,4.29.3.3,1.5,1.2,2.49,1.1.5,0,.9-.3,1.3-.8,1.2-1.6-1.4-3.79-1.4-3.79-.9-.9-4.29-3.89-8.58-6.58-.9-.6-3.49.4-6.48,1.5l-2.49,1c-3.19,1.2-6.18,2.39-6.88,3.19-.4.5-1.9,3.19-3.89,6.98,0,0,0,.1,0,.1-1.17,2.19-2.34,4.38-3.54,6.56-1,1.81-2.37,3.57-3.19,5.46-.69,1.59-.98,3.45-1.43,5.13l-1.38,5.09-.43,1.61v.2c2.39,4.19,6.68,4.99,9.77,4.99,1.3,0,2.29-.1,2.99-.3,0,0,.1,0,.2-.1,1.1-1.8,2.73-3.72,4.37-5.05.47-.38,1.49-1.4,1.93-1.72l.57-.29Z"/><path class="cls-1" d="m65.78,41.55c.44.32,1.47,1.34,1.93,1.72,1.64,1.32,3.27,3.25,4.37,5.05.1.1.2.1.2.1.7.2,1.7.3,2.99.3,3.09,0,7.38-.8,9.77-4.99v-.2c-.14-.54-.29-1.07-.43-1.61l-1.38-5.09c-.45-1.67-.74-3.54-1.43-5.13-.82-1.89-2.19-3.65-3.19-5.46-1.2-2.18-2.37-4.37-3.54-6.56,0,0,0-.1,0-.1-1.99-3.79-3.49-6.48-3.89-6.98-.7-.8-3.69-1.99-6.88-3.19l-2.49-1c-2.99-1.1-5.59-2.09-6.48-1.5-4.29,2.69-7.68,5.69-8.58,6.58,0,0-2.59,2.19-1.4,3.79.4.5.8.8,1.3.8,1,.1,2.19-.8,2.49-1.1,2.29-2.29,5.19-4.19,5.29-4.29.1-.1.3-.2.5-.2,2.29.1,6.88,1.4,8.18,6.38,1.2,4.49-.3,8.98-4.29,13.37-2.79,3.09-9.87,5.59-11.97,6.28-2.39.8-2.19,2.29-2.19,2.49.4,1.99,1.99,1.99,2.29,1.99,6.48-1.2,13.27-1.7,13.37-1.7h.1c1.84.11,3.43.06,4.8-.07l.57.29Z"/></svg>