<?xml version="1.0" encoding="UTF-8"?><svg id="Layer_1" xmlns="http://www.w3.org/2000/svg" viewBox="0 0 180 180"><defs><style>.cls-1{fill:#a67380;stroke-width:0px;}</style></defs><path class="cls-1" d="m44.47,150.46c-6.17-5.93-.47-12.1,4.98-10.68.95-4.03,1.42-12.81-6.88-25.38-6.64-9.73-12.57-23.01-8.3-45.31-.24-1.66.47-3.56-.95-4.27-3.08-1.19-6.64-.95-12.57-2.14-4.98-.95-8.07-8.3-6.88-13.29.71-3.08,3.56-3.56,5.69-8.78s7.12-14.47,14.71-15.42c0,0-.24-11.15,0-13.05,5.93,1.66,10.68,6.88,14.47,13.52,11.15,4.03,18.27,17.08,13.52,30.6-.71,3.8,2.37,8.78,8.54,9.02,42.94-3.8,65,43.42,57.89,75.68,0,0,6.64.47,15.18-.47,3.56-.47,3.08-.47,5.46-1.19,5.69-1.42,13.29-3.32,18.98,2.61,3.8,4.03,6.17,9.96,3.8,15.18-2.85,6.88-10.68,11.15-20.88,11.15l-41.04.24c-2.61,0-4.98-2.14-4.98-4.98,0-2.61,2.14-4.98,4.98-4.98l41.28-.47c6.17,0,9.73-1.9,10.91-4.98.71-1.66,0-3.32-1.19-4.51-1.66-1.66-4.27-1.19-9.73,0-2.85.71-4.03,1.19-7.83,1.42-9.25,1.19-18.03.47-18.03.47H44.47Z"/></svg>