<?xml version="1.0" encoding="UTF-8"?><svg id="Layer_1" xmlns="http://www.w3.org/2000/svg" viewBox="0 0 103.11 54.33"><defs><style>.cls-1{fill:#a2b8cb;stroke-width:0px;}</style></defs><path class="cls-1" d="m42.42,19.63s-5.83.26-15.23-1.19-12.45,14.03-19.6,24.24,10.6-5.56,14.97-9.8c4.37-4.24,17.62-7.98,25.3-.68,0,0,3.05,2.57,3.75,11.14,0,0,7.42-.97,9.98-3.88,0,0-3.53-3.53-4.86-6.89-1.33-3.35-1.32-5.16,1.85-7.44,3.2-2.29,7.18-5.68,12.74-7.62,5.56-1.94,17.73,1.92,23.62,2.06,5.89.13-8.28-5.9-16.95-10s-14.57-.46-16.95,1.99c-2.38,2.45-4.04,6.09-10.93,5.76,0,0-2.12-2.54-4.02-3.2-1.9-.66-2.83-.22-6.76-1.24l3.22,2.56s.66,2.12-.13,4.19Z"/></svg>